<?xml version="1.0" standalone="no"?>
<!DOCTYPE svg PUBLIC "-//W3C//DTD SVG 20010904//EN"
 "http://www.w3.org/TR/2001/REC-SVG-20010904/DTD/svg10.dtd">
<svg version="1.0" xmlns="http://www.w3.org/2000/svg"
 width="351.000000pt" height="351.000000pt" viewBox="0 0 351.000000 351.000000"
 preserveAspectRatio="xMidYMid meet">
<metadata>
Created by potrace 1.14, written by Peter Selinger 2001-2017
</metadata>
<g transform="translate(0.000000,351.000000) scale(0.100000,-0.100000)"
fill="#000000" stroke="none">
<path d="M2287 3454 c-3 -4 0 -18 7 -33 17 -34 21 -131 6 -131 -6 0 -26 7 -45
14 -19 8 -35 13 -35 11 0 -3 -12 0 -26 5 -31 12 -148 37 -224 47 -70 10 -367
10 -442 1 -588 -75 -1113 -476 -1342 -1024 -36 -89 -93 -280 -101 -344 -4 -30
-8 -57 -10 -60 -7 -11 -18 -171 -17 -250 1 -200 27 -356 87 -536 191 -572 676
-999 1270 -1120 188 -38 464 -39 648 -3 29 6 63 13 77 15 14 3 79 23 145 45
474 158 858 525 1039 995 31 82 61 182 73 244 2 14 8 43 13 65 22 103 34 374
19 460 -4 22 -10 66 -14 98 -3 33 -11 71 -16 85 -6 15 -10 28 -9 30 3 5 -12
70 -32 132 -131 414 -417 761 -801 975 -59 32 -68 41 -62 59 4 11 13 47 22 79
18 67 19 66 -81 117 -55 28 -132 40 -149 24z"/>
</g>
</svg>
